<mxfile host="app.diagrams.net" agent="Mozilla/5.0 (Macintosh; Intel Mac OS X 10_15_7) AppleWebKit/537.36 (KHTML, like Gecko) Chrome/133.0.0.0 Safari/537.36" version="26.0.14">
  <diagram name="Page-1" id="RdUHbopJ15FUdcuSnktS">
    <mxGraphModel dx="708" dy="448" grid="0" gridSize="10" guides="1" tooltips="1" connect="1" arrows="1" fold="1" page="1" pageScale="1" pageWidth="827" pageHeight="1169" background="#ffffff" math="0" shadow="0">
      <root>
        <mxCell id="0" />
        <mxCell id="1" parent="0" />
        <mxCell id="F4VM9RLazsL0ufN1rCmm-102" value="" style="rounded=0;whiteSpace=wrap;html=1;dashed=1;fillColor=none;" parent="1" vertex="1">
          <mxGeometry x="367.5" y="653" width="366.5" height="124" as="geometry" />
        </mxCell>
        <mxCell id="F4VM9RLazsL0ufN1rCmm-83" value="" style="rounded=0;whiteSpace=wrap;html=1;dashed=1;fillColor=none;" parent="1" vertex="1">
          <mxGeometry x="368" y="468.5" width="366" height="175.5" as="geometry" />
        </mxCell>
        <mxCell id="F4VM9RLazsL0ufN1rCmm-81" value="" style="rounded=0;whiteSpace=wrap;html=1;dashed=1;fillColor=none;" parent="1" vertex="1">
          <mxGeometry x="367.5" y="203" width="366" height="123" as="geometry" />
        </mxCell>
        <mxCell id="F4VM9RLazsL0ufN1rCmm-82" value="" style="rounded=0;whiteSpace=wrap;html=1;dashed=1;fillColor=none;" parent="1" vertex="1">
          <mxGeometry x="367.5" y="334" width="367" height="127" as="geometry" />
        </mxCell>
        <mxCell id="zpjJOaSImEKCOt8uoOfP-4" style="edgeStyle=orthogonalEdgeStyle;rounded=0;orthogonalLoop=1;jettySize=auto;html=1;exitX=0.5;exitY=1;exitDx=0;exitDy=0;align=center;labelBackgroundColor=none;fontColor=default;strokeColor=none;fontFamily=KaiTi;" parent="1" edge="1">
          <mxGeometry relative="1" as="geometry">
            <mxPoint x="240" y="240" as="sourcePoint" />
            <mxPoint x="240" y="240" as="targetPoint" />
          </mxGeometry>
        </mxCell>
        <mxCell id="zpjJOaSImEKCOt8uoOfP-7" value="&lt;span style=&quot;font-size: 14px; font-style: normal; font-variant-ligatures: normal; font-variant-caps: normal; font-weight: 400; letter-spacing: normal; orphans: 2; text-indent: 0px; text-transform: none; white-space: break-spaces; widows: 2; word-spacing: 0px; -webkit-text-stroke-width: 0px; text-decoration-thickness: initial; text-decoration-style: initial; text-decoration-color: initial; float: none; display: inline !important;&quot;&gt;研究内容四、质量测度&lt;/span&gt;&lt;div&gt;&lt;font&gt;&lt;span style=&quot;font-size: 14px; white-space-collapse: break-spaces;&quot;&gt;&lt;br&gt;&lt;/span&gt;&lt;/font&gt;&lt;div&gt;&lt;font&gt;&lt;span style=&quot;font-size: 14px; white-space-collapse: break-spaces;&quot;&gt;&lt;br&gt;&lt;/span&gt;&lt;/font&gt;&lt;div&gt;&lt;span style=&quot;font-size: 14px; font-style: normal; font-variant-ligatures: normal; font-variant-caps: normal; font-weight: 400; letter-spacing: normal; orphans: 2; text-indent: 0px; text-transform: none; white-space: break-spaces; widows: 2; word-spacing: 0px; -webkit-text-stroke-width: 0px; text-decoration-thickness: initial; text-decoration-style: initial; text-decoration-color: initial; float: none; display: inline !important;&quot;&gt;&lt;br&gt;&lt;/span&gt;&lt;/div&gt;&lt;/div&gt;&lt;/div&gt;" style="text;whiteSpace=wrap;html=1;strokeColor=#36393d;align=center;labelBackgroundColor=none;fillColor=#ffcc99;fontFamily=KaiTi;rounded=1;" parent="1" vertex="1">
          <mxGeometry x="159.13" y="666" width="160" height="30" as="geometry" />
        </mxCell>
        <mxCell id="zpjJOaSImEKCOt8uoOfP-9" value="&lt;span style=&quot;font-size: 14px; font-style: normal; font-variant-ligatures: normal; font-variant-caps: normal; font-weight: 400; letter-spacing: normal; orphans: 2; text-indent: 0px; text-transform: none; white-space: break-spaces; widows: 2; word-spacing: 0px; -webkit-text-stroke-width: 0px; text-decoration-thickness: initial; text-decoration-style: initial; text-decoration-color: initial; float: none; display: inline !important;&quot;&gt;竞争关系&lt;/span&gt;&lt;div&gt;&lt;font&gt;&lt;span style=&quot;font-size: 14px; white-space-collapse: break-spaces;&quot;&gt;&lt;br&gt;&lt;/span&gt;&lt;/font&gt;&lt;div&gt;&lt;span style=&quot;font-size: 14px; font-style: normal; font-variant-ligatures: normal; font-variant-caps: normal; font-weight: 400; letter-spacing: normal; orphans: 2; text-indent: 0px; text-transform: none; white-space: break-spaces; widows: 2; word-spacing: 0px; -webkit-text-stroke-width: 0px; text-decoration-thickness: initial; text-decoration-style: initial; text-decoration-color: initial; float: none; display: inline !important;&quot;&gt;&lt;br&gt;&lt;/span&gt;&lt;/div&gt;&lt;/div&gt;" style="text;whiteSpace=wrap;html=1;strokeColor=default;align=center;labelBackgroundColor=none;fillColor=#f8cecc;fontFamily=KaiTi;" parent="1" vertex="1">
          <mxGeometry x="425.5" y="215" width="60" height="30" as="geometry" />
        </mxCell>
        <mxCell id="zpjJOaSImEKCOt8uoOfP-10" value="&lt;span style=&quot;font-size: 14px; font-style: normal; font-variant-ligatures: normal; font-variant-caps: normal; font-weight: 400; letter-spacing: normal; orphans: 2; text-indent: 0px; text-transform: none; white-space: break-spaces; widows: 2; word-spacing: 0px; -webkit-text-stroke-width: 0px; text-decoration-thickness: initial; text-decoration-style: initial; text-decoration-color: initial; float: none; display: inline !important;&quot;&gt;合作关系&lt;/span&gt;&lt;div&gt;&lt;font&gt;&lt;span style=&quot;font-size: 14px; white-space-collapse: break-spaces;&quot;&gt;&lt;br&gt;&lt;/span&gt;&lt;/font&gt;&lt;div&gt;&lt;div&gt;&lt;div&gt;&lt;span style=&quot;font-size: 14px; font-style: normal; font-variant-ligatures: normal; font-variant-caps: normal; font-weight: 400; letter-spacing: normal; orphans: 2; text-indent: 0px; text-transform: none; white-space: break-spaces; widows: 2; word-spacing: 0px; -webkit-text-stroke-width: 0px; text-decoration-thickness: initial; text-decoration-style: initial; text-decoration-color: initial; float: none; display: inline !important;&quot;&gt;&lt;br&gt;&lt;/span&gt;&lt;/div&gt;&lt;/div&gt;&lt;/div&gt;&lt;/div&gt;" style="text;whiteSpace=wrap;html=1;strokeColor=default;align=center;labelBackgroundColor=none;fillColor=#cdeb8b;fontFamily=KaiTi;" parent="1" vertex="1">
          <mxGeometry x="515.5" y="215" width="70" height="30" as="geometry" />
        </mxCell>
        <mxCell id="zpjJOaSImEKCOt8uoOfP-11" value="&lt;span style=&quot;font-size: 14px; white-space-collapse: break-spaces;&quot;&gt;竞合关系&lt;/span&gt;&lt;div&gt;&lt;font&gt;&lt;span style=&quot;font-size: 14px; white-space-collapse: break-spaces;&quot;&gt;&lt;br&gt;&lt;/span&gt;&lt;/font&gt;&lt;div&gt;&lt;div&gt;&lt;div&gt;&lt;div&gt;&lt;span style=&quot;font-size: 14px; font-style: normal; font-variant-ligatures: normal; font-variant-caps: normal; font-weight: 400; letter-spacing: normal; orphans: 2; text-indent: 0px; text-transform: none; white-space: break-spaces; widows: 2; word-spacing: 0px; -webkit-text-stroke-width: 0px; text-decoration-thickness: initial; text-decoration-style: initial; text-decoration-color: initial; float: none; display: inline !important;&quot;&gt;&lt;br&gt;&lt;/span&gt;&lt;/div&gt;&lt;/div&gt;&lt;/div&gt;&lt;/div&gt;&lt;/div&gt;" style="text;whiteSpace=wrap;html=1;strokeColor=light-dark(#080808, #9577a3);align=center;fillColor=#e1d5e7;labelBackgroundColor=none;fontFamily=KaiTi;" parent="1" vertex="1">
          <mxGeometry x="605.5" y="215" width="80" height="30" as="geometry" />
        </mxCell>
        <mxCell id="zpjJOaSImEKCOt8uoOfP-12" value="&lt;span style=&quot;font-size: 14px; font-style: normal; font-variant-ligatures: normal; font-variant-caps: normal; font-weight: 400; letter-spacing: normal; orphans: 2; text-indent: 0px; text-transform: none; white-space: break-spaces; widows: 2; word-spacing: 0px; -webkit-text-stroke-width: 0px; text-decoration-thickness: initial; text-decoration-style: initial; text-decoration-color: initial; float: none; display: inline !important;&quot;&gt;竞争网络&lt;/span&gt;&lt;div&gt;&lt;font&gt;&lt;span style=&quot;font-size: 14px; white-space-collapse: break-spaces;&quot;&gt;&lt;br&gt;&lt;/span&gt;&lt;/font&gt;&lt;div&gt;&lt;font&gt;&lt;span style=&quot;font-size: 14px; white-space-collapse: break-spaces;&quot;&gt;&lt;br&gt;&lt;/span&gt;&lt;/font&gt;&lt;div&gt;&lt;span style=&quot;font-size: 14px; font-style: normal; font-variant-ligatures: normal; font-variant-caps: normal; font-weight: 400; letter-spacing: normal; orphans: 2; text-indent: 0px; text-transform: none; white-space: break-spaces; widows: 2; word-spacing: 0px; -webkit-text-stroke-width: 0px; text-decoration-thickness: initial; text-decoration-style: initial; text-decoration-color: initial; float: none; display: inline !important;&quot;&gt;&lt;br&gt;&lt;/span&gt;&lt;/div&gt;&lt;/div&gt;&lt;/div&gt;" style="text;whiteSpace=wrap;html=1;strokeColor=default;align=center;labelBackgroundColor=none;fillColor=#f8cecc;fontFamily=KaiTi;" parent="1" vertex="1">
          <mxGeometry x="425.5" y="345" width="60" height="30" as="geometry" />
        </mxCell>
        <mxCell id="F4VM9RLazsL0ufN1rCmm-43" style="edgeStyle=orthogonalEdgeStyle;rounded=0;orthogonalLoop=1;jettySize=auto;html=1;exitX=0.5;exitY=1;exitDx=0;exitDy=0;entryX=0.5;entryY=0;entryDx=0;entryDy=0;labelBackgroundColor=none;fontColor=default;align=center;fontFamily=KaiTi;" parent="1" source="zpjJOaSImEKCOt8uoOfP-13" target="F4VM9RLazsL0ufN1rCmm-34" edge="1">
          <mxGeometry relative="1" as="geometry" />
        </mxCell>
        <mxCell id="zpjJOaSImEKCOt8uoOfP-13" value="&lt;span style=&quot;font-size: 14px; font-style: normal; font-variant-ligatures: normal; font-variant-caps: normal; font-weight: 400; letter-spacing: normal; orphans: 2; text-indent: 0px; text-transform: none; white-space: break-spaces; widows: 2; word-spacing: 0px; -webkit-text-stroke-width: 0px; text-decoration-thickness: initial; text-decoration-style: initial; text-decoration-color: initial; float: none; display: inline !important;&quot;&gt;合作网络&lt;/span&gt;&lt;div&gt;&lt;font&gt;&lt;span style=&quot;font-size: 14px; white-space-collapse: break-spaces;&quot;&gt;&lt;br&gt;&lt;/span&gt;&lt;/font&gt;&lt;div&gt;&lt;font&gt;&lt;span style=&quot;font-size: 14px; white-space-collapse: break-spaces;&quot;&gt;&lt;br&gt;&lt;/span&gt;&lt;/font&gt;&lt;div&gt;&lt;span style=&quot;font-size: 14px; font-style: normal; font-variant-ligatures: normal; font-variant-caps: normal; font-weight: 400; letter-spacing: normal; orphans: 2; text-indent: 0px; text-transform: none; white-space: break-spaces; widows: 2; word-spacing: 0px; -webkit-text-stroke-width: 0px; text-decoration-thickness: initial; text-decoration-style: initial; text-decoration-color: initial; float: none; display: inline !important;&quot;&gt;&lt;br&gt;&lt;/span&gt;&lt;/div&gt;&lt;/div&gt;&lt;/div&gt;" style="text;whiteSpace=wrap;html=1;strokeColor=default;align=center;labelBackgroundColor=none;fillColor=#cce5ff;fontFamily=KaiTi;" parent="1" vertex="1">
          <mxGeometry x="513.5" y="345" width="72" height="30" as="geometry" />
        </mxCell>
        <mxCell id="zpjJOaSImEKCOt8uoOfP-17" value="&lt;span style=&quot;font-size: 14px; font-style: normal; font-variant-ligatures: normal; font-variant-caps: normal; font-weight: 400; letter-spacing: normal; orphans: 2; text-indent: 0px; text-transform: none; white-space: break-spaces; widows: 2; word-spacing: 0px; -webkit-text-stroke-width: 0px; text-decoration-thickness: initial; text-decoration-style: initial; text-decoration-color: initial; float: none; display: inline !important;&quot;&gt;网络结构&lt;/span&gt;&lt;div&gt;&lt;font&gt;&lt;span style=&quot;font-size: 14px; white-space-collapse: break-spaces;&quot;&gt;&lt;br&gt;&lt;/span&gt;&lt;/font&gt;&lt;div&gt;&lt;font&gt;&lt;span style=&quot;font-size: 14px; white-space-collapse: break-spaces;&quot;&gt;&lt;br&gt;&lt;/span&gt;&lt;/font&gt;&lt;div&gt;&lt;font&gt;&lt;span style=&quot;font-size: 14px; white-space-collapse: break-spaces;&quot;&gt;&lt;br&gt;&lt;/span&gt;&lt;/font&gt;&lt;div&gt;&lt;span style=&quot;font-size: 14px; font-style: normal; font-variant-ligatures: normal; font-variant-caps: normal; font-weight: 400; letter-spacing: normal; orphans: 2; text-indent: 0px; text-transform: none; white-space: break-spaces; widows: 2; word-spacing: 0px; -webkit-text-stroke-width: 0px; text-decoration-thickness: initial; text-decoration-style: initial; text-decoration-color: initial; float: none; display: inline !important;&quot;&gt;&lt;br&gt;&lt;/span&gt;&lt;/div&gt;&lt;/div&gt;&lt;/div&gt;&lt;/div&gt;" style="text;whiteSpace=wrap;html=1;strokeColor=#36393d;align=center;labelBackgroundColor=none;fillColor=#f9f7ed;fontFamily=KaiTi;" parent="1" vertex="1">
          <mxGeometry x="482" y="522" width="101" height="30" as="geometry" />
        </mxCell>
        <mxCell id="zpjJOaSImEKCOt8uoOfP-19" value="&lt;div&gt;&lt;div&gt;&lt;font&gt;&lt;span style=&quot;font-size: 14px; white-space-collapse: break-spaces;&quot;&gt;产业环境&lt;/span&gt;&lt;/font&gt;&lt;/div&gt;&lt;/div&gt;&lt;div&gt;&lt;font&gt;&lt;span style=&quot;font-size: 14px; white-space-collapse: break-spaces;&quot;&gt;&lt;br&gt;&lt;/span&gt;&lt;/font&gt;&lt;/div&gt;&lt;div&gt;&lt;span style=&quot;font-size: 14px; font-style: normal; font-variant-ligatures: normal; font-variant-caps: normal; font-weight: 400; letter-spacing: normal; orphans: 2; text-indent: 0px; text-transform: none; white-space: break-spaces; widows: 2; word-spacing: 0px; -webkit-text-stroke-width: 0px; text-decoration-thickness: initial; text-decoration-style: initial; text-decoration-color: initial; float: none; display: inline !important;&quot;&gt;&lt;br&gt;&lt;/span&gt;&lt;/div&gt;" style="text;whiteSpace=wrap;html=1;strokeColor=#36393d;align=center;labelBackgroundColor=none;fillColor=#f9f7ed;fontFamily=KaiTi;" parent="1" vertex="1">
          <mxGeometry x="383" y="572" width="100" height="30" as="geometry" />
        </mxCell>
        <mxCell id="zpjJOaSImEKCOt8uoOfP-20" value="&lt;div&gt;&lt;div&gt;&lt;font&gt;&lt;span style=&quot;font-size: 14px; white-space-collapse: break-spaces;&quot;&gt;国家政策&lt;/span&gt;&lt;/font&gt;&lt;/div&gt;&lt;/div&gt;&lt;div&gt;&lt;span style=&quot;font-size: 14px; font-style: normal; font-variant-ligatures: normal; font-variant-caps: normal; font-weight: 400; letter-spacing: normal; orphans: 2; text-indent: 0px; text-transform: none; white-space: break-spaces; widows: 2; word-spacing: 0px; -webkit-text-stroke-width: 0px; text-decoration-thickness: initial; text-decoration-style: initial; text-decoration-color: initial; float: none; display: inline !important;&quot;&gt;&lt;br&gt;&lt;/span&gt;&lt;/div&gt;" style="text;whiteSpace=wrap;html=1;strokeColor=#36393d;align=center;labelBackgroundColor=none;fillColor=#f9f7ed;fontFamily=KaiTi;" parent="1" vertex="1">
          <mxGeometry x="483" y="572" width="100" height="30" as="geometry" />
        </mxCell>
        <mxCell id="zpjJOaSImEKCOt8uoOfP-22" value="&lt;span style=&quot;font-size: 14px; font-style: normal; font-variant-ligatures: normal; font-variant-caps: normal; font-weight: 400; letter-spacing: normal; orphans: 2; text-indent: 0px; text-transform: none; white-space: break-spaces; widows: 2; word-spacing: 0px; -webkit-text-stroke-width: 0px; text-decoration-thickness: initial; text-decoration-style: initial; text-decoration-color: initial; float: none; display: inline !important;&quot;&gt;研究内容一、内涵界定&lt;/span&gt;" style="text;whiteSpace=wrap;html=1;strokeColor=#36393d;align=center;labelBackgroundColor=none;fillColor=#ffcc99;fontFamily=KaiTi;rounded=1;" parent="1" vertex="1">
          <mxGeometry x="159.13" y="251" width="160" height="30" as="geometry" />
        </mxCell>
        <mxCell id="zpjJOaSImEKCOt8uoOfP-23" style="edgeStyle=orthogonalEdgeStyle;rounded=0;orthogonalLoop=1;jettySize=auto;html=1;exitX=0.5;exitY=1;exitDx=0;exitDy=0;align=center;labelBackgroundColor=none;fontColor=default;strokeColor=none;fontFamily=KaiTi;" parent="1" source="zpjJOaSImEKCOt8uoOfP-22" target="zpjJOaSImEKCOt8uoOfP-22" edge="1">
          <mxGeometry relative="1" as="geometry" />
        </mxCell>
        <mxCell id="zpjJOaSImEKCOt8uoOfP-25" value="&lt;span style=&quot;font-size: 14px; font-style: normal; font-variant-ligatures: normal; font-variant-caps: normal; font-weight: 400; letter-spacing: normal; orphans: 2; text-indent: 0px; text-transform: none; white-space: break-spaces; widows: 2; word-spacing: 0px; -webkit-text-stroke-width: 0px; text-decoration-thickness: initial; text-decoration-style: initial; text-decoration-color: initial; float: none; display: inline !important;&quot;&gt;研究内容三、边界条件&lt;/span&gt;&lt;div&gt;&lt;font&gt;&lt;span style=&quot;font-size: 14px; white-space-collapse: break-spaces;&quot;&gt;&lt;br&gt;&lt;/span&gt;&lt;/font&gt;&lt;div&gt;&lt;span style=&quot;font-size: 14px; font-style: normal; font-variant-ligatures: normal; font-variant-caps: normal; font-weight: 400; letter-spacing: normal; orphans: 2; text-indent: 0px; text-transform: none; white-space: break-spaces; widows: 2; word-spacing: 0px; -webkit-text-stroke-width: 0px; text-decoration-thickness: initial; text-decoration-style: initial; text-decoration-color: initial; float: none; display: inline !important;&quot;&gt;&lt;br&gt;&lt;/span&gt;&lt;/div&gt;&lt;/div&gt;" style="text;whiteSpace=wrap;html=1;strokeColor=#36393d;align=center;fillColor=#ffcc99;labelBackgroundColor=none;fontFamily=KaiTi;rounded=1;" parent="1" vertex="1">
          <mxGeometry x="160" y="527" width="160" height="30" as="geometry" />
        </mxCell>
        <mxCell id="F4VM9RLazsL0ufN1rCmm-2" style="edgeStyle=orthogonalEdgeStyle;rounded=0;orthogonalLoop=1;jettySize=auto;html=1;exitX=0.5;exitY=1;exitDx=0;exitDy=0;entryX=0.5;entryY=0;entryDx=0;entryDy=0;labelBackgroundColor=none;fontColor=default;align=center;fontFamily=KaiTi;" parent="1" source="zpjJOaSImEKCOt8uoOfP-27" target="zpjJOaSImEKCOt8uoOfP-41" edge="1">
          <mxGeometry relative="1" as="geometry" />
        </mxCell>
        <mxCell id="zpjJOaSImEKCOt8uoOfP-27" value="&lt;span style=&quot;font-size: 14px; font-style: normal; font-variant-ligatures: normal; font-variant-caps: normal; font-weight: 400; letter-spacing: normal; orphans: 2; text-indent: 0px; text-transform: none; white-space: break-spaces; widows: 2; word-spacing: 0px; -webkit-text-stroke-width: 0px; text-decoration-thickness: initial; text-decoration-style: initial; text-decoration-color: initial; float: none; display: inline !important;&quot;&gt;竞争关系&lt;/span&gt;&lt;div&gt;&lt;font&gt;&lt;span style=&quot;font-size: 14px; white-space-collapse: break-spaces;&quot;&gt;&lt;br&gt;&lt;/span&gt;&lt;/font&gt;&lt;div&gt;&lt;span style=&quot;font-size: 14px; font-style: normal; font-variant-ligatures: normal; font-variant-caps: normal; font-weight: 400; letter-spacing: normal; orphans: 2; text-indent: 0px; text-transform: none; white-space: break-spaces; widows: 2; word-spacing: 0px; -webkit-text-stroke-width: 0px; text-decoration-thickness: initial; text-decoration-style: initial; text-decoration-color: initial; float: none; display: inline !important;&quot;&gt;&lt;br&gt;&lt;/span&gt;&lt;/div&gt;&lt;/div&gt;" style="text;whiteSpace=wrap;html=1;strokeColor=default;align=center;fillColor=#f8cecc;labelBackgroundColor=none;fontFamily=KaiTi;" parent="1" vertex="1">
          <mxGeometry x="425.5" y="215" width="60" height="30" as="geometry" />
        </mxCell>
        <mxCell id="F4VM9RLazsL0ufN1rCmm-3" style="edgeStyle=orthogonalEdgeStyle;rounded=0;orthogonalLoop=1;jettySize=auto;html=1;exitX=0.5;exitY=1;exitDx=0;exitDy=0;entryX=0.5;entryY=0;entryDx=0;entryDy=0;labelBackgroundColor=none;fontColor=default;align=center;fontFamily=KaiTi;" parent="1" source="zpjJOaSImEKCOt8uoOfP-28" target="zpjJOaSImEKCOt8uoOfP-42" edge="1">
          <mxGeometry relative="1" as="geometry" />
        </mxCell>
        <mxCell id="zpjJOaSImEKCOt8uoOfP-28" value="&lt;span style=&quot;font-size: 14px; font-style: normal; font-variant-ligatures: normal; font-variant-caps: normal; font-weight: 400; letter-spacing: normal; orphans: 2; text-indent: 0px; text-transform: none; white-space: break-spaces; widows: 2; word-spacing: 0px; -webkit-text-stroke-width: 0px; text-decoration-thickness: initial; text-decoration-style: initial; text-decoration-color: initial; float: none; display: inline !important;&quot;&gt;合作关系&lt;/span&gt;&lt;div&gt;&lt;font&gt;&lt;span style=&quot;font-size: 14px; white-space-collapse: break-spaces;&quot;&gt;&lt;br&gt;&lt;/span&gt;&lt;/font&gt;&lt;div&gt;&lt;div&gt;&lt;div&gt;&lt;span style=&quot;font-size: 14px; font-style: normal; font-variant-ligatures: normal; font-variant-caps: normal; font-weight: 400; letter-spacing: normal; orphans: 2; text-indent: 0px; text-transform: none; white-space: break-spaces; widows: 2; word-spacing: 0px; -webkit-text-stroke-width: 0px; text-decoration-thickness: initial; text-decoration-style: initial; text-decoration-color: initial; float: none; display: inline !important;&quot;&gt;&lt;br&gt;&lt;/span&gt;&lt;/div&gt;&lt;/div&gt;&lt;/div&gt;&lt;/div&gt;" style="text;whiteSpace=wrap;html=1;strokeColor=default;align=center;fillColor=#cce5ff;labelBackgroundColor=none;fontFamily=KaiTi;" parent="1" vertex="1">
          <mxGeometry x="515.5" y="215" width="70" height="30" as="geometry" />
        </mxCell>
        <mxCell id="F4VM9RLazsL0ufN1rCmm-4" style="edgeStyle=orthogonalEdgeStyle;rounded=0;orthogonalLoop=1;jettySize=auto;html=1;exitX=0.5;exitY=1;exitDx=0;exitDy=0;entryX=0.5;entryY=0;entryDx=0;entryDy=0;labelBackgroundColor=none;fontColor=default;align=center;fontFamily=KaiTi;" parent="1" target="zpjJOaSImEKCOt8uoOfP-43" edge="1">
          <mxGeometry relative="1" as="geometry">
            <mxPoint x="645.5" y="245" as="sourcePoint" />
          </mxGeometry>
        </mxCell>
        <mxCell id="F4VM9RLazsL0ufN1rCmm-38" style="edgeStyle=orthogonalEdgeStyle;rounded=0;orthogonalLoop=1;jettySize=auto;html=1;exitX=0.5;exitY=1;exitDx=0;exitDy=0;labelBackgroundColor=none;fontColor=default;align=center;fontFamily=KaiTi;" parent="1" source="zpjJOaSImEKCOt8uoOfP-30" target="F4VM9RLazsL0ufN1rCmm-34" edge="1">
          <mxGeometry relative="1" as="geometry" />
        </mxCell>
        <mxCell id="zpjJOaSImEKCOt8uoOfP-30" value="&lt;span style=&quot;font-size: 14px; font-style: normal; font-variant-ligatures: normal; font-variant-caps: normal; font-weight: 400; letter-spacing: normal; orphans: 2; text-indent: 0px; text-transform: none; white-space: break-spaces; widows: 2; word-spacing: 0px; -webkit-text-stroke-width: 0px; text-decoration-thickness: initial; text-decoration-style: initial; text-decoration-color: initial; float: none; display: inline !important;&quot;&gt;竞争网络&lt;/span&gt;&lt;div&gt;&lt;font&gt;&lt;span style=&quot;font-size: 14px; white-space-collapse: break-spaces;&quot;&gt;&lt;br&gt;&lt;/span&gt;&lt;/font&gt;&lt;div&gt;&lt;font&gt;&lt;span style=&quot;font-size: 14px; white-space-collapse: break-spaces;&quot;&gt;&lt;br&gt;&lt;/span&gt;&lt;/font&gt;&lt;div&gt;&lt;span style=&quot;font-size: 14px; font-style: normal; font-variant-ligatures: normal; font-variant-caps: normal; font-weight: 400; letter-spacing: normal; orphans: 2; text-indent: 0px; text-transform: none; white-space: break-spaces; widows: 2; word-spacing: 0px; -webkit-text-stroke-width: 0px; text-decoration-thickness: initial; text-decoration-style: initial; text-decoration-color: initial; float: none; display: inline !important;&quot;&gt;&lt;br&gt;&lt;/span&gt;&lt;/div&gt;&lt;/div&gt;&lt;/div&gt;" style="text;whiteSpace=wrap;html=1;strokeColor=default;align=center;labelBackgroundColor=none;fillColor=#f8cecc;fontFamily=KaiTi;" parent="1" vertex="1">
          <mxGeometry x="425.5" y="345" width="60" height="30" as="geometry" />
        </mxCell>
        <mxCell id="F4VM9RLazsL0ufN1rCmm-39" style="edgeStyle=orthogonalEdgeStyle;rounded=0;orthogonalLoop=1;jettySize=auto;html=1;exitX=0.5;exitY=1;exitDx=0;exitDy=0;entryX=0.5;entryY=0;entryDx=0;entryDy=0;labelBackgroundColor=none;fontColor=default;align=center;fontFamily=KaiTi;" parent="1" source="zpjJOaSImEKCOt8uoOfP-32" target="F4VM9RLazsL0ufN1rCmm-34" edge="1">
          <mxGeometry relative="1" as="geometry" />
        </mxCell>
        <mxCell id="zpjJOaSImEKCOt8uoOfP-32" value="&lt;span style=&quot;font-size: 14px; font-style: normal; font-variant-ligatures: normal; font-variant-caps: normal; font-weight: 400; letter-spacing: normal; orphans: 2; text-indent: 0px; text-transform: none; white-space: break-spaces; widows: 2; word-spacing: 0px; -webkit-text-stroke-width: 0px; text-decoration-thickness: initial; text-decoration-style: initial; text-decoration-color: initial; float: none; display: inline !important;&quot;&gt;竞合&lt;/span&gt;&lt;span style=&quot;font-size: 14px; white-space-collapse: break-spaces;&quot;&gt;网络&lt;/span&gt;&lt;div&gt;&lt;div&gt;&lt;font&gt;&lt;span style=&quot;font-size: 14px; white-space-collapse: break-spaces;&quot;&gt;&lt;br&gt;&lt;/span&gt;&lt;/font&gt;&lt;div&gt;&lt;font&gt;&lt;span style=&quot;font-size: 14px; white-space-collapse: break-spaces;&quot;&gt;&lt;br&gt;&lt;/span&gt;&lt;/font&gt;&lt;div&gt;&lt;span style=&quot;font-size: 14px; font-style: normal; font-variant-ligatures: normal; font-variant-caps: normal; font-weight: 400; letter-spacing: normal; orphans: 2; text-indent: 0px; text-transform: none; white-space: break-spaces; widows: 2; word-spacing: 0px; -webkit-text-stroke-width: 0px; text-decoration-thickness: initial; text-decoration-style: initial; text-decoration-color: initial; float: none; display: inline !important;&quot;&gt;&lt;br&gt;&lt;/span&gt;&lt;/div&gt;&lt;/div&gt;&lt;/div&gt;&lt;/div&gt;" style="text;whiteSpace=wrap;html=1;strokeColor=light-dark(#080808, #9577a3);align=center;labelBackgroundColor=none;fillColor=#e1d5e7;fontFamily=KaiTi;" parent="1" vertex="1">
          <mxGeometry x="605" y="345" width="81" height="30" as="geometry" />
        </mxCell>
        <mxCell id="zpjJOaSImEKCOt8uoOfP-33" value="&lt;span style=&quot;font-size: 14px; font-style: normal; font-variant-ligatures: normal; font-variant-caps: normal; font-weight: 400; letter-spacing: normal; orphans: 2; text-indent: 0px; text-transform: none; white-space: break-spaces; widows: 2; word-spacing: 0px; -webkit-text-stroke-width: 0px; text-decoration-thickness: initial; text-decoration-style: initial; text-decoration-color: initial; float: none; display: inline !important;&quot;&gt;网络位置&lt;/span&gt;&lt;div&gt;&lt;div&gt;&lt;div&gt;&lt;span style=&quot;font-size: 14px; font-style: normal; font-variant-ligatures: normal; font-variant-caps: normal; font-weight: 400; letter-spacing: normal; orphans: 2; text-indent: 0px; text-transform: none; white-space: break-spaces; widows: 2; word-spacing: 0px; -webkit-text-stroke-width: 0px; text-decoration-thickness: initial; text-decoration-style: initial; text-decoration-color: initial; float: none; display: inline !important;&quot;&gt;&lt;br&gt;&lt;/span&gt;&lt;/div&gt;&lt;/div&gt;&lt;/div&gt;" style="text;whiteSpace=wrap;html=1;strokeColor=#36393d;align=center;labelBackgroundColor=none;fillColor=#f9f7ed;fontFamily=KaiTi;" parent="1" vertex="1">
          <mxGeometry x="482" y="497" width="101" height="30" as="geometry" />
        </mxCell>
        <mxCell id="zpjJOaSImEKCOt8uoOfP-35" value="&lt;div&gt;&lt;div&gt;&lt;span style=&quot;font-size: 14px; font-style: normal; font-variant-ligatures: normal; font-variant-caps: normal; font-weight: 400; letter-spacing: normal; orphans: 2; text-indent: 0px; text-transform: none; white-space: break-spaces; widows: 2; word-spacing: 0px; -webkit-text-stroke-width: 0px; text-decoration-thickness: initial; text-decoration-style: initial; text-decoration-color: initial; float: none; display: inline !important;&quot;&gt;企业研发能力&lt;/span&gt;&lt;span style=&quot;font-size: 0px; text-wrap-mode: nowrap;&quot;&gt;%3CmxGraphModel%3E%3Croot%3E%3CmxCell%20id%3D%220%22%2F%3E%3CmxCell%20id%3D%221%22%20parent%3D%220%22%2F%3E%3CmxCell%20id%3D%222%22%20value%3D%22%26lt%3Bspan%20style%3D%26quot%3Bcolor%3A%20rgb(3%2C%2098%2C%2095)%3B%20font-family%3A%20%26amp%3Bquot%3BDroid%20Serif%26amp%3Bquot%3B%2C%20NeverMind%2C%20sans-serif%2C%20%26amp%3Bquot%3BMicrosoft%20YaHei%26amp%3Bquot%3B%2C%20%26amp%3Bquot%3BPingFang%20SC%26amp%3Bquot%3B%2C%20%26amp%3Bquot%3BMicrosoft%20JhengHei%26amp%3Bquot%3B%2C%20%26amp%3Bquot%3BApple%20Color%20Emoji%26amp%3Bquot%3B%2C%20%26amp%3Bquot%3BSegoe%20UI%20Emoji%26amp%3Bquot%3B%2C%20%26amp%3Bquot%3BSegoe%20UI%20Symbol%26amp%3Bquot%3B%2C%20%26amp%3Bquot%3BNoto%20Color%20Emoji%26amp%3Bquot%3B%3B%20font-size%3A%2014px%3B%20font-style%3A%20normal%3B%20font-variant-ligatures%3A%20normal%3B%20font-variant-caps%3A%20normal%3B%20font-weight%3A%20400%3B%20letter-spacing%3A%20normal%3B%20orphans%3A%202%3B%20text-indent%3A%200px%3B%20text-transform%3A%20none%3B%20white-space%3A%20break-spaces%3B%20widows%3A%202%3B%20word-spacing%3A%200px%3B%20-webkit-text-stroke-width%3A%200px%3B%20background-color%3A%20rgb(255%2C%20255%2C%20255)%3B%20text-decoration-thickness%3A%20initial%3B%20text-decoration-style%3A%20initial%3B%20text-decoration-color%3A%20initial%3B%20float%3A%20none%3B%20display%3A%20inline%20!important%3B%26quot%3B%26gt%3B%E7%AB%9E%E5%90%88%E7%BD%91%E7%BB%9C%E4%BD%8D%E7%BD%AE%26lt%3B%2Fspan%26gt%3B%26lt%3Bdiv%26gt%3B%26lt%3Bfont%20color%3D%26quot%3B%2303625f%26quot%3B%20face%3D%26quot%3BDroid%20Serif%2C%20NeverMind%2C%20sans-serif%2C%20Microsoft%20YaHei%2C%20PingFang%20SC%2C%20Microsoft%20JhengHei%2C%20Apple%20Color%20Emoji%2C%20Segoe%20UI%20Emoji%2C%20Segoe%20UI%20Symbol%2C%20Noto%20Color%20Emoji%26quot%3B%26gt%3B%26lt%3Bspan%20style%3D%26quot%3Bfont-size%3A%2014px%3B%20white-space-collapse%3A%20break-spaces%3B%26quot%3B%26gt%3B%26lt%3Bbr%26gt%3B%26lt%3B%2Fspan%26gt%3B%26lt%3B%2Ffont%26gt%3B%26lt%3Bdiv%26gt%3B%26lt%3Bfont%20color%3D%26quot%3B%2303625f%26quot%3B%20face%3D%26quot%3BDroid%20Serif%2C%20NeverMind%2C%20sans-serif%2C%20Microsoft%20YaHei%2C%20PingFang%20SC%2C%20Microsoft%20JhengHei%2C%20Apple%20Color%20Emoji%2C%20Segoe%20UI%20Emoji%2C%20Segoe%20UI%20Symbol%2C%20Noto%20Color%20Emoji%26quot%3B%26gt%3B%26lt%3Bspan%20style%3D%26quot%3Bfont-size%3A%2014px%3B%20white-space-collapse%3A%20break-spaces%3B%26quot%3B%26gt%3B%26lt%3Bbr%26gt%3B%26lt%3B%2Fspan%26gt%3B%26lt%3B%2Ffont%26gt%3B%26lt%3Bdiv%26gt%3B%26lt%3Bspan%20style%3D%26quot%3Bcolor%3A%20rgb(3%2C%2098%2C%2095)%3B%20font-family%3A%20%26amp%3Bquot%3BDroid%20Serif%26amp%3Bquot%3B%2C%20NeverMind%2C%20sans-serif%2C%20%26amp%3Bquot%3BMicrosoft%20YaHei%26amp%3Bquot%3B%2C%20%26amp%3Bquot%3BPingFang%20SC%26amp%3Bquot%3B%2C%20%26amp%3Bquot%3BMicrosoft%20JhengHei%26amp%3Bquot%3B%2C%20%26amp%3Bquot%3BApple%20Color%20Emoji%26amp%3Bquot%3B%2C%20%26amp%3Bquot%3BSegoe%20UI%20Emoji%26amp%3Bquot%3B%2C%20%26amp%3Bquot%3BSegoe%20UI%20Symbol%26amp%3Bquot%3B%2C%20%26amp%3Bquot%3BNoto%20Color%20Emoji%26amp%3Bquot%3B%3B%20font-size%3A%2014px%3B%20font-style%3A%20normal%3B%20font-variant-ligatures%3A%20normal%3B%20font-variant-caps%3A%20normal%3B%20font-weight%3A%20400%3B%20letter-spacing%3A%20normal%3B%20orphans%3A%202%3B%20text-indent%3A%200px%3B%20text-transform%3A%20none%3B%20white-space%3A%20break-spaces%3B%20widows%3A%202%3B%20word-spacing%3A%200px%3B%20-webkit-text-stroke-width%3A%200px%3B%20background-color%3A%20rgb(255%2C%20255%2C%20255)%3B%20text-decoration-thickness%3A%20initial%3B%20text-decoration-style%3A%20initial%3B%20text-decoration-color%3A%20initial%3B%20float%3A%20none%3B%20display%3A%20inline%20!important%3B%26quot%3B%26gt%3B%26lt%3Bbr%26gt%3B%26lt%3B%2Fspan%26gt%3B%26lt%3B%2Fdiv%26gt%3B%26lt%3B%2Fdiv%26gt%3B%26lt%3B%2Fdiv%26gt%3B%22%20style%3D%22text%3BwhiteSpace%3Dwrap%3Bhtml%3D1%3BstrokeColor%3Ddefault%3Balign%3Dcenter%3B%22%20vertex%3D%221%22%20parent%3D%221%22%3E%3CmxGeometry%20x%3D%22390%22%20y%3D%22470%22%20width%3D%22100%22%20height%3D%2230%22%20as%3D%22geometry%22%2F%3E%3C%2FmxCell%3E%3C%2Froot%3E%3C%2FmxGraphModel%3E&lt;/span&gt;&lt;span style=&quot;font-size: 0px; text-wrap-mode: nowrap;&quot;&gt;%3CmxGraphModel%3E%3Croot%3E%3CmxCell%20id%3D%220%22%2F%3E%3CmxCell%20id%3D%221%22%20parent%3D%220%22%2F%3E%3CmxCell%20id%3D%222%22%20value%3D%22%26lt%3Bspan%20style%3D%26quot%3Bcolor%3A%20rgb(3%2C%2098%2C%2095)%3B%20font-family%3A%20%26amp%3Bquot%3BDroid%20Serif%26amp%3Bquot%3B%2C%20NeverMind%2C%20sans-serif%2C%20%26amp%3Bquot%3BMicrosoft%20YaHei%26amp%3Bquot%3B%2C%20%26amp%3Bquot%3BPingFang%20SC%26amp%3Bquot%3B%2C%20%26amp%3Bquot%3BMicrosoft%20JhengHei%26amp%3Bquot%3B%2C%20%26amp%3Bquot%3BApple%20Color%20Emoji%26amp%3Bquot%3B%2C%20%26amp%3Bquot%3BSegoe%20UI%20Emoji%26amp%3Bquot%3B%2C%20%26amp%3Bquot%3BSegoe%20UI%20Symbol%26amp%3Bquot%3B%2C%20%26amp%3Bquot%3BNoto%20Color%20Emoji%26amp%3Bquot%3B%3B%20font-size%3A%2014px%3B%20font-style%3A%20normal%3B%20font-variant-ligatures%3A%20normal%3B%20font-variant-caps%3A%20normal%3B%20font-weight%3A%20400%3B%20letter-spacing%3A%20normal%3B%20orphans%3A%202%3B%20text-indent%3A%200px%3B%20text-transform%3A%20none%3B%20white-space%3A%20break-spaces%3B%20widows%3A%202%3B%20word-spacing%3A%200px%3B%20-webkit-text-stroke-width%3A%200px%3B%20background-color%3A%20rgb(255%2C%20255%2C%20255)%3B%20text-decoration-thickness%3A%20initial%3B%20text-decoration-style%3A%20initial%3B%20text-decoration-color%3A%20initial%3B%20float%3A%20none%3B%20display%3A%20inline%20!important%3B%26quot%3B%26gt%3B%E7%AB%9E%E5%90%88%E7%BD%91%E7%BB%9C%E4%BD%8D%E7%BD%AE%26lt%3B%2Fspan%26gt%3B%26lt%3Bdiv%26gt%3B%26lt%3Bfont%20color%3D%26quot%3B%2303625f%26quot%3B%20face%3D%26quot%3BDroid%20Serif%2C%20NeverMind%2C%20sans-serif%2C%20Microsoft%20YaHei%2C%20PingFang%20SC%2C%20Microsoft%20JhengHei%2C%20Apple%20Color%20Emoji%2C%20Segoe%20UI%20Emoji%2C%20Segoe%20UI%20Symbol%2C%20Noto%20Color%20Emoji%26quot%3B%26gt%3B%26lt%3Bspan%20style%3D%26quot%3Bfont-size%3A%2014px%3B%20white-space-collapse%3A%20break-spaces%3B%26quot%3B%26gt%3B%26lt%3Bbr%26gt%3B%26lt%3B%2Fspan%26gt%3B%26lt%3B%2Ffont%26gt%3B%26lt%3Bdiv%26gt%3B%26lt%3Bfont%20color%3D%26quot%3B%2303625f%26quot%3B%20face%3D%26quot%3BDroid%20Serif%2C%20NeverMind%2C%20sans-serif%2C%20Microsoft%20YaHei%2C%20PingFang%20SC%2C%20Microsoft%20JhengHei%2C%20Apple%20Color%20Emoji%2C%20Segoe%20UI%20Emoji%2C%20Segoe%20UI%20Symbol%2C%20Noto%20Color%20Emoji%26quot%3B%26gt%3B%26lt%3Bspan%20style%3D%26quot%3Bfont-size%3A%2014px%3B%20white-space-collapse%3A%20break-spaces%3B%26quot%3B%26gt%3B%26lt%3Bbr%26gt%3B%26lt%3B%2Fspan%26gt%3B%26lt%3B%2Ffont%26gt%3B%26lt%3Bdiv%26gt%3B%26lt%3Bspan%20style%3D%26quot%3Bcolor%3A%20rgb(3%2C%2098%2C%2095)%3B%20font-family%3A%20%26amp%3Bquot%3BDroid%20Serif%26amp%3Bquot%3B%2C%20NeverMind%2C%20sans-serif%2C%20%26amp%3Bquot%3BMicrosoft%20YaHei%26amp%3Bquot%3B%2C%20%26amp%3Bquot%3BPingFang%20SC%26amp%3Bquot%3B%2C%20%26amp%3Bquot%3BMicrosoft%20JhengHei%26amp%3Bquot%3B%2C%20%26amp%3Bquot%3BApple%20Color%20Emoji%26amp%3Bquot%3B%2C%20%26amp%3Bquot%3BSegoe%20UI%20Emoji%26amp%3Bquot%3B%2C%20%26amp%3Bquot%3BSegoe%20UI%20Symbol%26amp%3Bquot%3B%2C%20%26amp%3Bquot%3BNoto%20Color%20Emoji%26amp%3Bquot%3B%3B%20font-size%3A%2014px%3B%20font-style%3A%20normal%3B%20font-variant-ligatures%3A%20normal%3B%20font-variant-caps%3A%20normal%3B%20font-weight%3A%20400%3B%20letter-spacing%3A%20normal%3B%20orphans%3A%202%3B%20text-indent%3A%200px%3B%20text-transform%3A%20none%3B%20white-space%3A%20break-spaces%3B%20widows%3A%202%3B%20word-spacing%3A%200px%3B%20-webkit-text-stroke-width%3A%200px%3B%20background-color%3A%20rgb(255%2C%20255%2C%20255)%3B%20text-decoration-thickness%3A%20initial%3B%20text-decoration-style%3A%20initial%3B%20text-decoration-color%3A%20initial%3B%20float%3A%20none%3B%20display%3A%20inline%20!important%3B%26quot%3B%26gt%3B%26lt%3Bbr%26gt%3B%26lt%3B%2Fspan%26gt%3B%26lt%3B%2Fdiv%26gt%3B%26lt%3B%2Fdiv%26gt%3B%26lt%3B%2Fdiv%26gt%3B%22%20style%3D%22text%3BwhiteSpace%3Dwrap%3Bhtml%3D1%3BstrokeColor%3Ddefault%3Balign%3Dcenter%3B%22%20vertex%3D%221%22%20parent%3D%221%22%3E%3CmxGeometry%20x%3D%22390%22%20y%3D%22470%22%20width%3D%22100%22%20height%3D%2230%22%20as%3D%22geometry%22%2F%3E%3C%2FmxCell%3E%3C%2Froot%3E%3C%2FmxGraphMode&lt;/span&gt;&lt;/div&gt;&lt;/div&gt;&lt;div&gt;&lt;span style=&quot;font-size: 14px; font-style: normal; font-variant-ligatures: normal; font-variant-caps: normal; font-weight: 400; letter-spacing: normal; orphans: 2; text-indent: 0px; text-transform: none; white-space: break-spaces; widows: 2; word-spacing: 0px; -webkit-text-stroke-width: 0px; text-decoration-thickness: initial; text-decoration-style: initial; text-decoration-color: initial; float: none; display: inline !important;&quot;&gt;&lt;br&gt;&lt;/span&gt;&lt;/div&gt;" style="text;whiteSpace=wrap;html=1;strokeColor=#36393d;align=center;labelBackgroundColor=none;fillColor=#f9f7ed;fontFamily=KaiTi;" parent="1" vertex="1">
          <mxGeometry x="383" y="607" width="100" height="30" as="geometry" />
        </mxCell>
        <mxCell id="zpjJOaSImEKCOt8uoOfP-38" value="&lt;div&gt;&lt;div&gt;&lt;div&gt;&lt;span style=&quot;font-size: 14px; font-style: normal; font-variant-ligatures: normal; font-variant-caps: normal; font-weight: 400; letter-spacing: normal; orphans: 2; text-indent: 0px; text-transform: none; white-space: break-spaces; widows: 2; word-spacing: 0px; -webkit-text-stroke-width: 0px; text-decoration-thickness: initial; text-decoration-style: initial; text-decoration-color: initial; float: none; display: inline !important;&quot;&gt;竞争关系协同&lt;/span&gt;&lt;/div&gt;&lt;/div&gt;&lt;/div&gt;" style="text;whiteSpace=wrap;html=1;strokeColor=default;align=center;labelBackgroundColor=none;fillColor=#f8cecc;fontFamily=KaiTi;" parent="1" vertex="1">
          <mxGeometry x="389.5" y="669" width="130" height="30" as="geometry" />
        </mxCell>
        <mxCell id="F4VM9RLazsL0ufN1rCmm-25" style="edgeStyle=orthogonalEdgeStyle;rounded=0;orthogonalLoop=1;jettySize=auto;html=1;exitX=1;exitY=0.5;exitDx=0;exitDy=0;entryX=0;entryY=0.5;entryDx=0;entryDy=0;labelBackgroundColor=none;fontColor=default;align=center;fontFamily=KaiTi;" parent="1" source="zpjJOaSImEKCOt8uoOfP-39" target="F4VM9RLazsL0ufN1rCmm-18" edge="1">
          <mxGeometry relative="1" as="geometry" />
        </mxCell>
        <mxCell id="zpjJOaSImEKCOt8uoOfP-39" value="&lt;font&gt;&lt;span style=&quot;font-size: 14px; white-space-collapse: break-spaces;&quot;&gt;合作关系协同&lt;/span&gt;&lt;/font&gt;" style="text;whiteSpace=wrap;html=1;strokeColor=default;align=center;labelBackgroundColor=none;fillColor=#dae8fc;fontFamily=KaiTi;" parent="1" vertex="1">
          <mxGeometry x="389.5" y="699" width="130" height="30" as="geometry" />
        </mxCell>
        <mxCell id="F4VM9RLazsL0ufN1rCmm-26" style="edgeStyle=orthogonalEdgeStyle;rounded=0;orthogonalLoop=1;jettySize=auto;html=1;exitX=1;exitY=0.5;exitDx=0;exitDy=0;entryX=0;entryY=0.5;entryDx=0;entryDy=0;labelBackgroundColor=none;fontColor=default;align=center;fontFamily=KaiTi;" parent="1" source="zpjJOaSImEKCOt8uoOfP-40" target="F4VM9RLazsL0ufN1rCmm-18" edge="1">
          <mxGeometry relative="1" as="geometry">
            <mxPoint x="549.5" y="719" as="targetPoint" />
          </mxGeometry>
        </mxCell>
        <mxCell id="zpjJOaSImEKCOt8uoOfP-40" value="&lt;div&gt;&lt;font&gt;&lt;span style=&quot;font-size: 14px; white-space-collapse: break-spaces;&quot;&gt;竞合关系协同&lt;/span&gt;&lt;/font&gt;&lt;/div&gt;&lt;div&gt;&lt;font&gt;&lt;span style=&quot;font-size: 14px; white-space-collapse: break-spaces;&quot;&gt;&lt;br&gt;&lt;/span&gt;&lt;/font&gt;&lt;/div&gt;" style="text;whiteSpace=wrap;html=1;strokeColor=light-dark(#080808, #9577a3);align=center;labelBackgroundColor=none;fillColor=#e1d5e7;fontFamily=KaiTi;" parent="1" vertex="1">
          <mxGeometry x="389.5" y="729" width="130" height="30" as="geometry" />
        </mxCell>
        <mxCell id="zpjJOaSImEKCOt8uoOfP-41" value="&lt;div&gt;&lt;div&gt;&lt;span style=&quot;font-size: 14px; white-space-collapse: break-spaces;&quot;&gt;防御性专利&lt;/span&gt;&lt;/div&gt;&lt;/div&gt;" style="text;whiteSpace=wrap;html=1;strokeColor=light-dark(#080808, #9577a3);align=center;labelBackgroundColor=none;fillColor=#d5e8d4;fontFamily=KaiTi;" parent="1" vertex="1">
          <mxGeometry x="417" y="275" width="75" height="28" as="geometry" />
        </mxCell>
        <mxCell id="zpjJOaSImEKCOt8uoOfP-42" value="&lt;div&gt;&lt;div&gt;&lt;span style=&quot;font-size: 14px; white-space-collapse: break-spaces;&quot;&gt;互补性专利&lt;/span&gt;&lt;/div&gt;&lt;/div&gt;" style="text;whiteSpace=wrap;html=1;strokeColor=light-dark(#080808, #9577a3);align=center;labelBackgroundColor=none;fillColor=#d5e8d4;fontFamily=KaiTi;" parent="1" vertex="1">
          <mxGeometry x="507" y="275" width="85" height="28" as="geometry" />
        </mxCell>
        <mxCell id="zpjJOaSImEKCOt8uoOfP-43" value="&lt;span style=&quot;font-size: 14px; white-space-collapse: break-spaces;&quot;&gt;前瞻性专利&lt;/span&gt;" style="text;whiteSpace=wrap;html=1;strokeColor=light-dark(#080808, #9577a3);align=center;labelBackgroundColor=none;fillColor=#d5e8d4;fontFamily=KaiTi;" parent="1" vertex="1">
          <mxGeometry x="605.5" y="275" width="80" height="28" as="geometry" />
        </mxCell>
        <mxCell id="F4VM9RLazsL0ufN1rCmm-17" value="&lt;div&gt;&lt;div&gt;&lt;div&gt;&lt;div&gt;&lt;span style=&quot;font-size: 14px; font-style: normal; font-variant-ligatures: normal; font-variant-caps: normal; font-weight: 400; letter-spacing: normal; orphans: 2; text-indent: 0px; text-transform: none; white-space: break-spaces; widows: 2; word-spacing: 0px; -webkit-text-stroke-width: 0px; text-decoration-thickness: initial; text-decoration-style: initial; text-decoration-color: initial; float: none; display: inline !important;&quot;&gt;海外专利布局质量&lt;/span&gt;&lt;/div&gt;&lt;/div&gt;&lt;/div&gt;&lt;/div&gt;&lt;div&gt;&lt;span style=&quot;font-size: 14px; font-style: normal; font-variant-ligatures: normal; font-variant-caps: normal; font-weight: 400; letter-spacing: normal; orphans: 2; text-indent: 0px; text-transform: none; white-space: break-spaces; widows: 2; word-spacing: 0px; -webkit-text-stroke-width: 0px; text-decoration-thickness: initial; text-decoration-style: initial; text-decoration-color: initial; float: none; display: inline !important;&quot;&gt;&lt;br&gt;&lt;/span&gt;&lt;/div&gt;" style="text;whiteSpace=wrap;html=1;strokeColor=light-dark(#080808, #9577a3);align=center;labelBackgroundColor=none;fillColor=#d5e8d4;fontFamily=KaiTi;rounded=1;" parent="1" vertex="1">
          <mxGeometry x="610.5" y="550.5" width="119.5" height="30" as="geometry" />
        </mxCell>
        <mxCell id="F4VM9RLazsL0ufN1rCmm-18" value="&lt;div&gt;&lt;div&gt;&lt;div&gt;&lt;div&gt;&lt;span style=&quot;font-size: 14px; font-style: normal; font-variant-ligatures: normal; font-variant-caps: normal; font-weight: 400; letter-spacing: normal; orphans: 2; text-indent: 0px; text-transform: none; white-space: break-spaces; widows: 2; word-spacing: 0px; -webkit-text-stroke-width: 0px; text-decoration-thickness: initial; text-decoration-style: initial; text-decoration-color: initial; float: none; display: inline !important;&quot;&gt;海外专利布局质量&lt;/span&gt;&lt;/div&gt;&lt;/div&gt;&lt;/div&gt;&lt;/div&gt;&lt;div&gt;&lt;span style=&quot;font-size: 14px; font-style: normal; font-variant-ligatures: normal; font-variant-caps: normal; font-weight: 400; letter-spacing: normal; orphans: 2; text-indent: 0px; text-transform: none; white-space: break-spaces; widows: 2; word-spacing: 0px; -webkit-text-stroke-width: 0px; text-decoration-thickness: initial; text-decoration-style: initial; text-decoration-color: initial; float: none; display: inline !important;&quot;&gt;&lt;br&gt;&lt;/span&gt;&lt;/div&gt;" style="text;whiteSpace=wrap;html=1;strokeColor=light-dark(#080808, #9577a3);align=center;labelBackgroundColor=none;fillColor=#d5e8d4;fontFamily=KaiTi;rounded=1;" parent="1" vertex="1">
          <mxGeometry x="610" y="699" width="120" height="30" as="geometry" />
        </mxCell>
        <mxCell id="F4VM9RLazsL0ufN1rCmm-22" value="" style="shape=curlyBracket;whiteSpace=wrap;html=1;rounded=1;flipH=1;labelPosition=right;verticalLabelPosition=middle;align=center;verticalAlign=middle;labelBackgroundColor=none;fontColor=default;fontFamily=KaiTi;" parent="1" vertex="1">
          <mxGeometry x="588" y="525" width="18.5" height="81" as="geometry" />
        </mxCell>
        <mxCell id="F4VM9RLazsL0ufN1rCmm-27" style="edgeStyle=orthogonalEdgeStyle;rounded=0;orthogonalLoop=1;jettySize=auto;html=1;entryX=0;entryY=0.5;entryDx=0;entryDy=0;exitX=1;exitY=0.5;exitDx=0;exitDy=0;labelBackgroundColor=none;fontColor=default;align=center;fontFamily=KaiTi;" parent="1" source="zpjJOaSImEKCOt8uoOfP-38" target="F4VM9RLazsL0ufN1rCmm-18" edge="1">
          <mxGeometry relative="1" as="geometry">
            <mxPoint x="564.5" y="724" as="targetPoint" />
            <mxPoint x="499.5" y="699" as="sourcePoint" />
          </mxGeometry>
        </mxCell>
        <mxCell id="F4VM9RLazsL0ufN1rCmm-34" value="&lt;div&gt;&lt;div&gt;&lt;div&gt;&lt;div&gt;&lt;span style=&quot;font-size: 14px; font-style: normal; font-variant-ligatures: normal; font-variant-caps: normal; font-weight: 400; letter-spacing: normal; orphans: 2; text-indent: 0px; text-transform: none; white-space: break-spaces; widows: 2; word-spacing: 0px; -webkit-text-stroke-width: 0px; text-decoration-thickness: initial; text-decoration-style: initial; text-decoration-color: initial; float: none; display: inline !important;&quot;&gt;海外专利布局质量&lt;/span&gt;&lt;/div&gt;&lt;/div&gt;&lt;/div&gt;&lt;/div&gt;&lt;div&gt;&lt;span style=&quot;font-size: 14px; font-style: normal; font-variant-ligatures: normal; font-variant-caps: normal; font-weight: 400; letter-spacing: normal; orphans: 2; text-indent: 0px; text-transform: none; white-space: break-spaces; widows: 2; word-spacing: 0px; -webkit-text-stroke-width: 0px; text-decoration-thickness: initial; text-decoration-style: initial; text-decoration-color: initial; float: none; display: inline !important;&quot;&gt;&lt;br&gt;&lt;/span&gt;&lt;/div&gt;" style="text;whiteSpace=wrap;html=1;strokeColor=light-dark(#080808, #9577a3);align=center;labelBackgroundColor=none;fillColor=#d5e8d4;fontFamily=KaiTi;rounded=1;" parent="1" vertex="1">
          <mxGeometry x="474.5" y="420" width="150" height="30" as="geometry" />
        </mxCell>
        <mxCell id="F4VM9RLazsL0ufN1rCmm-41" value="&lt;div&gt;&lt;div&gt;&lt;span style=&quot;font-size: 14px; font-style: normal; font-variant-ligatures: normal; font-variant-caps: normal; font-weight: 400; letter-spacing: normal; orphans: 2; text-indent: 0px; text-transform: none; white-space: break-spaces; widows: 2; word-spacing: 0px; -webkit-text-stroke-width: 0px; text-decoration-thickness: initial; text-decoration-style: initial; text-decoration-color: initial; float: none; display: inline !important;&quot;&gt;人员结构&lt;/span&gt;&lt;span style=&quot;font-size: 0px; text-wrap-mode: nowrap;&quot;&gt;%3CmxGraphModel%3E%3Croot%3E%3CmxCell%20id%3D%220%22%2F%3E%3CmxCell%20id%3D%221%22%20parent%3D%220%22%2F%3E%3CmxCell%20id%3D%222%22%20value%3D%22%26lt%3Bspan%20style%3D%26quot%3Bcolor%3A%20rgb(3%2C%2098%2C%2095)%3B%20font-family%3A%20%26amp%3Bquot%3BDroid%20Serif%26amp%3Bquot%3B%2C%20NeverMind%2C%20sans-serif%2C%20%26amp%3Bquot%3BMicrosoft%20YaHei%26amp%3Bquot%3B%2C%20%26amp%3Bquot%3BPingFang%20SC%26amp%3Bquot%3B%2C%20%26amp%3Bquot%3BMicrosoft%20JhengHei%26amp%3Bquot%3B%2C%20%26amp%3Bquot%3BApple%20Color%20Emoji%26amp%3Bquot%3B%2C%20%26amp%3Bquot%3BSegoe%20UI%20Emoji%26amp%3Bquot%3B%2C%20%26amp%3Bquot%3BSegoe%20UI%20Symbol%26amp%3Bquot%3B%2C%20%26amp%3Bquot%3BNoto%20Color%20Emoji%26amp%3Bquot%3B%3B%20font-size%3A%2014px%3B%20font-style%3A%20normal%3B%20font-variant-ligatures%3A%20normal%3B%20font-variant-caps%3A%20normal%3B%20font-weight%3A%20400%3B%20letter-spacing%3A%20normal%3B%20orphans%3A%202%3B%20text-indent%3A%200px%3B%20text-transform%3A%20none%3B%20white-space%3A%20break-spaces%3B%20widows%3A%202%3B%20word-spacing%3A%200px%3B%20-webkit-text-stroke-width%3A%200px%3B%20background-color%3A%20rgb(255%2C%20255%2C%20255)%3B%20text-decoration-thickness%3A%20initial%3B%20text-decoration-style%3A%20initial%3B%20text-decoration-color%3A%20initial%3B%20float%3A%20none%3B%20display%3A%20inline%20!important%3B%26quot%3B%26gt%3B%E7%AB%9E%E5%90%88%E7%BD%91%E7%BB%9C%E4%BD%8D%E7%BD%AE%26lt%3B%2Fspan%26gt%3B%26lt%3Bdiv%26gt%3B%26lt%3Bfont%20color%3D%26quot%3B%2303625f%26quot%3B%20face%3D%26quot%3BDroid%20Serif%2C%20NeverMind%2C%20sans-serif%2C%20Microsoft%20YaHei%2C%20PingFang%20SC%2C%20Microsoft%20JhengHei%2C%20Apple%20Color%20Emoji%2C%20Segoe%20UI%20Emoji%2C%20Segoe%20UI%20Symbol%2C%20Noto%20Color%20Emoji%26quot%3B%26gt%3B%26lt%3Bspan%20style%3D%26quot%3Bfont-size%3A%2014px%3B%20white-space-collapse%3A%20break-spaces%3B%26quot%3B%26gt%3B%26lt%3Bbr%26gt%3B%26lt%3B%2Fspan%26gt%3B%26lt%3B%2Ffont%26gt%3B%26lt%3Bdiv%26gt%3B%26lt%3Bfont%20color%3D%26quot%3B%2303625f%26quot%3B%20face%3D%26quot%3BDroid%20Serif%2C%20NeverMind%2C%20sans-serif%2C%20Microsoft%20YaHei%2C%20PingFang%20SC%2C%20Microsoft%20JhengHei%2C%20Apple%20Color%20Emoji%2C%20Segoe%20UI%20Emoji%2C%20Segoe%20UI%20Symbol%2C%20Noto%20Color%20Emoji%26quot%3B%26gt%3B%26lt%3Bspan%20style%3D%26quot%3Bfont-size%3A%2014px%3B%20white-space-collapse%3A%20break-spaces%3B%26quot%3B%26gt%3B%26lt%3Bbr%26gt%3B%26lt%3B%2Fspan%26gt%3B%26lt%3B%2Ffont%26gt%3B%26lt%3Bdiv%26gt%3B%26lt%3Bspan%20style%3D%26quot%3Bcolor%3A%20rgb(3%2C%2098%2C%2095)%3B%20font-family%3A%20%26amp%3Bquot%3BDroid%20Serif%26amp%3Bquot%3B%2C%20NeverMind%2C%20sans-serif%2C%20%26amp%3Bquot%3BMicrosoft%20YaHei%26amp%3Bquot%3B%2C%20%26amp%3Bquot%3BPingFang%20SC%26amp%3Bquot%3B%2C%20%26amp%3Bquot%3BMicrosoft%20JhengHei%26amp%3Bquot%3B%2C%20%26amp%3Bquot%3BApple%20Color%20Emoji%26amp%3Bquot%3B%2C%20%26amp%3Bquot%3BSegoe%20UI%20Emoji%26amp%3Bquot%3B%2C%20%26amp%3Bquot%3BSegoe%20UI%20Symbol%26amp%3Bquot%3B%2C%20%26amp%3Bquot%3BNoto%20Color%20Emoji%26amp%3Bquot%3B%3B%20font-size%3A%2014px%3B%20font-style%3A%20normal%3B%20font-variant-ligatures%3A%20normal%3B%20font-variant-caps%3A%20normal%3B%20font-weight%3A%20400%3B%20letter-spacing%3A%20normal%3B%20orphans%3A%202%3B%20text-indent%3A%200px%3B%20text-transform%3A%20none%3B%20white-space%3A%20break-spaces%3B%20widows%3A%202%3B%20word-spacing%3A%200px%3B%20-webkit-text-stroke-width%3A%200px%3B%20background-color%3A%20rgb(255%2C%20255%2C%20255)%3B%20text-decoration-thickness%3A%20initial%3B%20text-decoration-style%3A%20initial%3B%20text-decoration-color%3A%20initial%3B%20float%3A%20none%3B%20display%3A%20inline%20!important%3B%26quot%3B%26gt%3B%26lt%3Bbr%26gt%3B%26lt%3B%2Fspan%26gt%3B%26lt%3B%2Fdiv%26gt%3B%26lt%3B%2Fdiv%26gt%3B%26lt%3B%2Fdiv%26gt%3B%22%20style%3D%22text%3BwhiteSpace%3Dwrap%3Bhtml%3D1%3BstrokeColor%3Ddefault%3Balign%3Dcenter%3B%22%20vertex%3D%221%22%20parent%3D%221%22%3E%3CmxGeometry%20x%3D%22390%22%20y%3D%22470%22%20width%3D%22100%22%20height%3D%2230%22%20as%3D%22geometry%22%2F%3E%3C%2FmxCell%3E%3C%2Froot%3E%3C%2FmxGraphModel%3E&lt;/span&gt;&lt;span style=&quot;font-size: 0px; text-wrap-mode: nowrap;&quot;&gt;%3CmxGraphModel%3E%3Croot%3E%3CmxCell%20id%3D%220%22%2F%3E%3CmxCell%20id%3D%221%22%20parent%3D%220%22%2F%3E%3CmxCell%20id%3D%222%22%20value%3D%22%26lt%3Bspan%20style%3D%26quot%3Bcolor%3A%20rgb(3%2C%2098%2C%2095)%3B%20font-family%3A%20%26amp%3Bquot%3BDroid%20Serif%26amp%3Bquot%3B%2C%20NeverMind%2C%20sans-serif%2C%20%26amp%3Bquot%3BMicrosoft%20YaHei%26amp%3Bquot%3B%2C%20%26amp%3Bquot%3BPingFang%20SC%26amp%3Bquot%3B%2C%20%26amp%3Bquot%3BMicrosoft%20JhengHei%26amp%3Bquot%3B%2C%20%26amp%3Bquot%3BApple%20Color%20Emoji%26amp%3Bquot%3B%2C%20%26amp%3Bquot%3BSegoe%20UI%20Emoji%26amp%3Bquot%3B%2C%20%26amp%3Bquot%3BSegoe%20UI%20Symbol%26amp%3Bquot%3B%2C%20%26amp%3Bquot%3BNoto%20Color%20Emoji%26amp%3Bquot%3B%3B%20font-size%3A%2014px%3B%20font-style%3A%20normal%3B%20font-variant-ligatures%3A%20normal%3B%20font-variant-caps%3A%20normal%3B%20font-weight%3A%20400%3B%20letter-spacing%3A%20normal%3B%20orphans%3A%202%3B%20text-indent%3A%200px%3B%20text-transform%3A%20none%3B%20white-space%3A%20break-spaces%3B%20widows%3A%202%3B%20word-spacing%3A%200px%3B%20-webkit-text-stroke-width%3A%200px%3B%20background-color%3A%20rgb(255%2C%20255%2C%20255)%3B%20text-decoration-thickness%3A%20initial%3B%20text-decoration-style%3A%20initial%3B%20text-decoration-color%3A%20initial%3B%20float%3A%20none%3B%20display%3A%20inline%20!important%3B%26quot%3B%26gt%3B%E7%AB%9E%E5%90%88%E7%BD%91%E7%BB%9C%E4%BD%8D%E7%BD%AE%26lt%3B%2Fspan%26gt%3B%26lt%3Bdiv%26gt%3B%26lt%3Bfont%20color%3D%26quot%3B%2303625f%26quot%3B%20face%3D%26quot%3BDroid%20Serif%2C%20NeverMind%2C%20sans-serif%2C%20Microsoft%20YaHei%2C%20PingFang%20SC%2C%20Microsoft%20JhengHei%2C%20Apple%20Color%20Emoji%2C%20Segoe%20UI%20Emoji%2C%20Segoe%20UI%20Symbol%2C%20Noto%20Color%20Emoji%26quot%3B%26gt%3B%26lt%3Bspan%20style%3D%26quot%3Bfont-size%3A%2014px%3B%20white-space-collapse%3A%20break-spaces%3B%26quot%3B%26gt%3B%26lt%3Bbr%26gt%3B%26lt%3B%2Fspan%26gt%3B%26lt%3B%2Ffont%26gt%3B%26lt%3Bdiv%26gt%3B%26lt%3Bfont%20color%3D%26quot%3B%2303625f%26quot%3B%20face%3D%26quot%3BDroid%20Serif%2C%20NeverMind%2C%20sans-serif%2C%20Microsoft%20YaHei%2C%20PingFang%20SC%2C%20Microsoft%20JhengHei%2C%20Apple%20Color%20Emoji%2C%20Segoe%20UI%20Emoji%2C%20Segoe%20UI%20Symbol%2C%20Noto%20Color%20Emoji%26quot%3B%26gt%3B%26lt%3Bspan%20style%3D%26quot%3Bfont-size%3A%2014px%3B%20white-space-collapse%3A%20break-spaces%3B%26quot%3B%26gt%3B%26lt%3Bbr%26gt%3B%26lt%3B%2Fspan%26gt%3B%26lt%3B%2Ffont%26gt%3B%26lt%3Bdiv%26gt%3B%26lt%3Bspan%20style%3D%26quot%3Bcolor%3A%20rgb(3%2C%2098%2C%2095)%3B%20font-family%3A%20%26amp%3Bquot%3BDroid%20Serif%26amp%3Bquot%3B%2C%20NeverMind%2C%20sans-serif%2C%20%26amp%3Bquot%3BMicrosoft%20YaHei%26amp%3Bquot%3B%2C%20%26amp%3Bquot%3BPingFang%20SC%26amp%3Bquot%3B%2C%20%26amp%3Bquot%3BMicrosoft%20JhengHei%26amp%3Bquot%3B%2C%20%26amp%3Bquot%3BApple%20Color%20Emoji%26amp%3Bquot%3B%2C%20%26amp%3Bquot%3BSegoe%20UI%20Emoji%26amp%3Bquot%3B%2C%20%26amp%3Bquot%3BSegoe%20UI%20Symbol%26amp%3Bquot%3B%2C%20%26amp%3Bquot%3BNoto%20Color%20Emoji%26amp%3Bquot%3B%3B%20font-size%3A%2014px%3B%20font-style%3A%20normal%3B%20font-variant-ligatures%3A%20normal%3B%20font-variant-caps%3A%20normal%3B%20font-weight%3A%20400%3B%20letter-spacing%3A%20normal%3B%20orphans%3A%202%3B%20text-indent%3A%200px%3B%20text-transform%3A%20none%3B%20white-space%3A%20break-spaces%3B%20widows%3A%202%3B%20word-spacing%3A%200px%3B%20-webkit-text-stroke-width%3A%200px%3B%20background-color%3A%20rgb(255%2C%20255%2C%20255)%3B%20text-decoration-thickness%3A%20initial%3B%20text-decoration-style%3A%20initial%3B%20text-decoration-color%3A%20initial%3B%20float%3A%20none%3B%20display%3A%20inline%20!important%3B%26quot%3B%26gt%3B%26lt%3Bbr%26gt%3B%26lt%3B%2Fspan%26gt%3B%26lt%3B%2Fdiv%26gt%3B%26lt%3B%2Fdiv%26gt%3B%26lt%3B%2Fdiv%26gt%3B%22%20style%3D%22text%3BwhiteSpace%3Dwrap%3Bhtml%3D1%3BstrokeColor%3Ddefault%3Balign%3Dcenter%3B%22%20vertex%3D%221%22%20parent%3D%221%22%3E%3CmxGeometry%20x%3D%22390%22%20y%3D%22470%22%20width%3D%22100%22%20height%3D%2230%22%20as%3D%22geometry%22%2F%3E%3C%2FmxCell%3E%3C%2Froot%3E%3C%2FmxGraphMode&lt;/span&gt;&lt;/div&gt;&lt;/div&gt;&lt;div&gt;&lt;span style=&quot;font-size: 14px; font-style: normal; font-variant-ligatures: normal; font-variant-caps: normal; font-weight: 400; letter-spacing: normal; orphans: 2; text-indent: 0px; text-transform: none; white-space: break-spaces; widows: 2; word-spacing: 0px; -webkit-text-stroke-width: 0px; text-decoration-thickness: initial; text-decoration-style: initial; text-decoration-color: initial; float: none; display: inline !important;&quot;&gt;&lt;br&gt;&lt;/span&gt;&lt;/div&gt;" style="text;whiteSpace=wrap;html=1;strokeColor=#36393d;align=center;labelBackgroundColor=none;fillColor=#f9f7ed;fontFamily=KaiTi;" parent="1" vertex="1">
          <mxGeometry x="483" y="607" width="100" height="30" as="geometry" />
        </mxCell>
        <mxCell id="zpjJOaSImEKCOt8uoOfP-5" value="&lt;span style=&quot;font-size: 14px; font-style: normal; font-variant-ligatures: normal; font-variant-caps: normal; font-weight: 400; letter-spacing: normal; orphans: 2; text-indent: 0px; text-transform: none; white-space: break-spaces; widows: 2; word-spacing: 0px; -webkit-text-stroke-width: 0px; text-decoration-thickness: initial; text-decoration-style: initial; text-decoration-color: initial; float: none; display: inline !important;&quot;&gt;研究内容二、影响效应&lt;/span&gt;&lt;div&gt;&lt;span style=&quot;font-size: 14px; font-style: normal; font-variant-ligatures: normal; font-variant-caps: normal; font-weight: 400; letter-spacing: normal; orphans: 2; text-indent: 0px; text-transform: none; white-space: break-spaces; widows: 2; word-spacing: 0px; -webkit-text-stroke-width: 0px; text-decoration-thickness: initial; text-decoration-style: initial; text-decoration-color: initial; float: none; display: inline !important;&quot;&gt;&lt;br&gt;&lt;/span&gt;&lt;/div&gt;" style="text;whiteSpace=wrap;html=1;strokeColor=#36393d;align=center;fillColor=#ffcc99;labelBackgroundColor=none;fontFamily=KaiTi;rounded=1;" parent="1" vertex="1">
          <mxGeometry x="160" y="382.5" width="160" height="30" as="geometry" />
        </mxCell>
        <mxCell id="F4VM9RLazsL0ufN1rCmm-57" value="" style="shape=singleArrow;direction=south;whiteSpace=wrap;html=1;labelBackgroundColor=none;fillColor=#1ba1e2;strokeColor=none;fontFamily=KaiTi;fontColor=#ffffff;" parent="1" vertex="1">
          <mxGeometry x="159.13" y="293" width="37.87" height="69" as="geometry" />
        </mxCell>
        <mxCell id="F4VM9RLazsL0ufN1rCmm-64" value="&lt;span style=&quot;font-size: 14px; font-style: normal; font-variant-ligatures: normal; font-variant-caps: normal; font-weight: 400; letter-spacing: normal; orphans: 2; text-indent: 0px; text-transform: none; white-space: break-spaces; widows: 2; word-spacing: 0px; -webkit-text-stroke-width: 0px; text-decoration-thickness: initial; text-decoration-style: initial; text-decoration-color: initial; float: none; display: inline !important;&quot;&gt;竞争&lt;/span&gt;&lt;div&gt;&lt;font&gt;&lt;span style=&quot;font-size: 14px; white-space-collapse: break-spaces;&quot;&gt;&lt;br&gt;&lt;/span&gt;&lt;/font&gt;&lt;div&gt;&lt;span style=&quot;font-size: 14px; font-style: normal; font-variant-ligatures: normal; font-variant-caps: normal; font-weight: 400; letter-spacing: normal; orphans: 2; text-indent: 0px; text-transform: none; white-space: break-spaces; widows: 2; word-spacing: 0px; -webkit-text-stroke-width: 0px; text-decoration-thickness: initial; text-decoration-style: initial; text-decoration-color: initial; float: none; display: inline !important;&quot;&gt;&lt;br&gt;&lt;/span&gt;&lt;/div&gt;&lt;/div&gt;" style="text;whiteSpace=wrap;html=1;strokeColor=default;align=center;fillColor=#f8cecc;labelBackgroundColor=none;fontFamily=KaiTi;" parent="1" vertex="1">
          <mxGeometry x="383" y="477" width="59" height="30" as="geometry" />
        </mxCell>
        <mxCell id="F4VM9RLazsL0ufN1rCmm-65" value="&lt;span style=&quot;font-size: 14px; font-style: normal; font-variant-ligatures: normal; font-variant-caps: normal; font-weight: 400; letter-spacing: normal; orphans: 2; text-indent: 0px; text-transform: none; white-space: break-spaces; widows: 2; word-spacing: 0px; -webkit-text-stroke-width: 0px; text-decoration-thickness: initial; text-decoration-style: initial; text-decoration-color: initial; float: none; display: inline !important;&quot;&gt;合作&lt;/span&gt;&lt;div&gt;&lt;font&gt;&lt;span style=&quot;font-size: 14px; white-space-collapse: break-spaces;&quot;&gt;&lt;br&gt;&lt;/span&gt;&lt;/font&gt;&lt;div&gt;&lt;div&gt;&lt;div&gt;&lt;span style=&quot;font-size: 14px; font-style: normal; font-variant-ligatures: normal; font-variant-caps: normal; font-weight: 400; letter-spacing: normal; orphans: 2; text-indent: 0px; text-transform: none; white-space: break-spaces; widows: 2; word-spacing: 0px; -webkit-text-stroke-width: 0px; text-decoration-thickness: initial; text-decoration-style: initial; text-decoration-color: initial; float: none; display: inline !important;&quot;&gt;&lt;br&gt;&lt;/span&gt;&lt;/div&gt;&lt;/div&gt;&lt;/div&gt;&lt;/div&gt;" style="text;whiteSpace=wrap;html=1;strokeColor=default;align=center;fillColor=#cce5ff;labelBackgroundColor=none;fontFamily=KaiTi;" parent="1" vertex="1">
          <mxGeometry x="383" y="507" width="59" height="30" as="geometry" />
        </mxCell>
        <mxCell id="F4VM9RLazsL0ufN1rCmm-66" value="&lt;span style=&quot;font-size: 14px; white-space-collapse: break-spaces;&quot;&gt;竞合&lt;/span&gt;&lt;div&gt;&lt;font&gt;&lt;span style=&quot;font-size: 14px; white-space-collapse: break-spaces;&quot;&gt;&lt;br&gt;&lt;/span&gt;&lt;/font&gt;&lt;div&gt;&lt;div&gt;&lt;div&gt;&lt;div&gt;&lt;span style=&quot;font-size: 14px; font-style: normal; font-variant-ligatures: normal; font-variant-caps: normal; font-weight: 400; letter-spacing: normal; orphans: 2; text-indent: 0px; text-transform: none; white-space: break-spaces; widows: 2; word-spacing: 0px; -webkit-text-stroke-width: 0px; text-decoration-thickness: initial; text-decoration-style: initial; text-decoration-color: initial; float: none; display: inline !important;&quot;&gt;&lt;br&gt;&lt;/span&gt;&lt;/div&gt;&lt;/div&gt;&lt;/div&gt;&lt;/div&gt;&lt;/div&gt;" style="text;whiteSpace=wrap;html=1;strokeColor=light-dark(#080808, #9577a3);align=center;fillColor=#e1d5e7;labelBackgroundColor=none;fontFamily=KaiTi;" parent="1" vertex="1">
          <mxGeometry x="383" y="537" width="59" height="30" as="geometry" />
        </mxCell>
        <mxCell id="F4VM9RLazsL0ufN1rCmm-73" value="" style="endArrow=none;html=1;rounded=0;exitX=-0.004;exitY=0.282;exitDx=0;exitDy=0;exitPerimeter=0;" parent="1" edge="1">
          <mxGeometry width="50" height="50" relative="1" as="geometry">
            <mxPoint x="367.4959999999998" y="267.044" as="sourcePoint" />
            <mxPoint x="318.96" y="267" as="targetPoint" />
          </mxGeometry>
        </mxCell>
        <mxCell id="F4VM9RLazsL0ufN1rCmm-78" value="" style="endArrow=none;html=1;rounded=0;exitX=-0.004;exitY=0.282;exitDx=0;exitDy=0;exitPerimeter=0;" parent="1" edge="1">
          <mxGeometry width="50" height="50" relative="1" as="geometry">
            <mxPoint x="369" y="397.08" as="sourcePoint" />
            <mxPoint x="320" y="397.08" as="targetPoint" />
          </mxGeometry>
        </mxCell>
        <mxCell id="F4VM9RLazsL0ufN1rCmm-79" value="" style="endArrow=none;html=1;rounded=0;exitX=-0.004;exitY=0.282;exitDx=0;exitDy=0;exitPerimeter=0;" parent="1" edge="1">
          <mxGeometry width="50" height="50" relative="1" as="geometry">
            <mxPoint x="368" y="542" as="sourcePoint" />
            <mxPoint x="319" y="542" as="targetPoint" />
          </mxGeometry>
        </mxCell>
        <mxCell id="F4VM9RLazsL0ufN1rCmm-80" value="" style="endArrow=none;html=1;rounded=0;exitX=-0.004;exitY=0.282;exitDx=0;exitDy=0;exitPerimeter=0;" parent="1" edge="1">
          <mxGeometry width="50" height="50" relative="1" as="geometry">
            <mxPoint x="369" y="681" as="sourcePoint" />
            <mxPoint x="320" y="681" as="targetPoint" />
          </mxGeometry>
        </mxCell>
        <mxCell id="F4VM9RLazsL0ufN1rCmm-85" value="" style="strokeWidth=1;html=1;shape=mxgraph.flowchart.annotation_2;align=left;labelPosition=right;pointerEvents=1;" parent="1" vertex="1">
          <mxGeometry x="442" y="514" width="40" height="26" as="geometry" />
        </mxCell>
        <mxCell id="F4VM9RLazsL0ufN1rCmm-86" value="" style="rounded=0;whiteSpace=wrap;html=1;fillColor=none;dashed=1;" parent="1" vertex="1">
          <mxGeometry x="417.5" y="208" width="175" height="44" as="geometry" />
        </mxCell>
        <mxCell id="F4VM9RLazsL0ufN1rCmm-87" style="edgeStyle=orthogonalEdgeStyle;rounded=0;orthogonalLoop=1;jettySize=auto;html=1;exitX=1;exitY=0.5;exitDx=0;exitDy=0;entryX=0.645;entryY=0.228;entryDx=0;entryDy=0;entryPerimeter=0;" parent="1" source="F4VM9RLazsL0ufN1rCmm-86" target="F4VM9RLazsL0ufN1rCmm-81" edge="1">
          <mxGeometry relative="1" as="geometry">
            <Array as="points">
              <mxPoint x="600.5" y="231" />
              <mxPoint x="600.5" y="231" />
            </Array>
          </mxGeometry>
        </mxCell>
        <mxCell id="F4VM9RLazsL0ufN1rCmm-88" value="" style="rounded=0;whiteSpace=wrap;html=1;fillColor=none;dashed=1;" parent="1" vertex="1">
          <mxGeometry x="417.5" y="340" width="175" height="41" as="geometry" />
        </mxCell>
        <mxCell id="F4VM9RLazsL0ufN1rCmm-96" style="edgeStyle=orthogonalEdgeStyle;rounded=0;orthogonalLoop=1;jettySize=auto;html=1;exitX=1;exitY=0.5;exitDx=0;exitDy=0;entryX=0.645;entryY=0.228;entryDx=0;entryDy=0;entryPerimeter=0;" parent="1" edge="1">
          <mxGeometry relative="1" as="geometry">
            <mxPoint x="593" y="360" as="sourcePoint" />
            <mxPoint x="604" y="361" as="targetPoint" />
            <Array as="points">
              <mxPoint x="600.5" y="361" />
              <mxPoint x="600.5" y="361" />
            </Array>
          </mxGeometry>
        </mxCell>
        <mxCell id="F4VM9RLazsL0ufN1rCmm-97" value="&lt;span style=&quot;color: rgb(0, 0, 0); font-size: 14px; font-style: normal; font-variant-ligatures: normal; font-variant-caps: normal; font-weight: 400; letter-spacing: normal; orphans: 2; text-align: left; text-indent: 0px; text-transform: none; white-space: break-spaces; widows: 2; word-spacing: 0px; -webkit-text-stroke-width: 0px; text-decoration-thickness: initial; text-decoration-style: initial; text-decoration-color: initial; float: none; display: inline !important;&quot;&gt;&lt;font face=&quot;KaiTi&quot;&gt;面对全球市场中的竞合关系，数字企业应该采取什么专利布局策略？&lt;/font&gt;&lt;/span&gt;" style="text;whiteSpace=wrap;html=1;fillColor=#f5f5f5;fontColor=#333333;strokeColor=none;labelBackgroundColor=none;rounded=1;" parent="1" vertex="1">
          <mxGeometry x="204" y="289" width="155" height="65" as="geometry" />
        </mxCell>
        <mxCell id="F4VM9RLazsL0ufN1rCmm-98" value="" style="shape=singleArrow;direction=south;whiteSpace=wrap;html=1;labelBackgroundColor=none;fillColor=#1ba1e2;strokeColor=none;fontFamily=KaiTi;fontColor=#ffffff;" parent="1" vertex="1">
          <mxGeometry x="159.13" y="432" width="37.87" height="69" as="geometry" />
        </mxCell>
        <mxCell id="F4VM9RLazsL0ufN1rCmm-99" value="" style="shape=singleArrow;direction=south;whiteSpace=wrap;html=1;labelBackgroundColor=none;fillColor=#1ba1e2;strokeColor=none;fontFamily=KaiTi;fontColor=#ffffff;" parent="1" vertex="1">
          <mxGeometry x="160" y="573" width="40.87" height="69" as="geometry" />
        </mxCell>
        <mxCell id="F4VM9RLazsL0ufN1rCmm-100" value="&lt;span style=&quot;color: rgb(0, 0, 0); font-family: KaiTi, &amp;quot;Droid Serif&amp;quot;, NeverMind, sans-serif, &amp;quot;Microsoft YaHei&amp;quot;, &amp;quot;PingFang SC&amp;quot;, &amp;quot;Microsoft JhengHei&amp;quot;, &amp;quot;Apple Color Emoji&amp;quot;, &amp;quot;Segoe UI Emoji&amp;quot;, &amp;quot;Segoe UI Symbol&amp;quot;, &amp;quot;Noto Color Emoji&amp;quot;; font-style: normal; font-variant-ligatures: normal; font-variant-caps: normal; font-weight: 400; letter-spacing: normal; orphans: 2; text-align: left; text-indent: 0px; text-transform: none; white-space: break-spaces; widows: 2; word-spacing: 0px; -webkit-text-stroke-width: 0px; text-decoration-thickness: initial; text-decoration-style: initial; text-decoration-color: initial; float: none; display: inline !important;&quot;&gt;&lt;font style=&quot;font-size: 14px;&quot;&gt;如何基于全球竞合网络的结构特征，构建数字企业专利布局质量的测度？&lt;/font&gt;&lt;/span&gt;" style="text;whiteSpace=wrap;html=1;fillColor=#f5f5f5;fontColor=#333333;strokeColor=none;labelBackgroundColor=none;rounded=1;" parent="1" vertex="1">
          <mxGeometry x="205" y="427" width="155" height="79" as="geometry" />
        </mxCell>
        <mxCell id="F4VM9RLazsL0ufN1rCmm-101" value="&lt;span style=&quot;font-family: KaiTi, &amp;quot;Droid Serif&amp;quot;, NeverMind, sans-serif, &amp;quot;Microsoft YaHei&amp;quot;, &amp;quot;PingFang SC&amp;quot;, &amp;quot;Microsoft JhengHei&amp;quot;, &amp;quot;Apple Color Emoji&amp;quot;, &amp;quot;Segoe UI Emoji&amp;quot;, &amp;quot;Segoe UI Symbol&amp;quot;, &amp;quot;Noto Color Emoji&amp;quot;; font-size: 14px; white-space-collapse: break-spaces;&quot;&gt;如何基于全球竞合网络的结构特征，构建数字企业专利布局质量的测度？&lt;/span&gt;" style="text;whiteSpace=wrap;html=1;fillColor=#f5f5f5;fontColor=default;strokeColor=none;labelBackgroundColor=none;rounded=1;" parent="1" vertex="1">
          <mxGeometry x="204" y="701" width="151" height="77" as="geometry" />
        </mxCell>
        <mxCell id="F4VM9RLazsL0ufN1rCmm-104" value="&lt;span style=&quot;font-family: KaiTi, &amp;quot;Droid Serif&amp;quot;, NeverMind, sans-serif, &amp;quot;Microsoft YaHei&amp;quot;, &amp;quot;PingFang SC&amp;quot;, &amp;quot;Microsoft JhengHei&amp;quot;, &amp;quot;Apple Color Emoji&amp;quot;, &amp;quot;Segoe UI Emoji&amp;quot;, &amp;quot;Segoe UI Symbol&amp;quot;, &amp;quot;Noto Color Emoji&amp;quot;; white-space-collapse: break-spaces;&quot;&gt;&lt;font style=&quot;font-size: 14px;&quot;&gt;数字企业提升海外专利布局质量存在哪些关键路径？&lt;/font&gt;&lt;/span&gt;" style="text;whiteSpace=wrap;html=1;fillColor=#f5f5f5;fontColor=default;strokeColor=none;labelBackgroundColor=none;rounded=1;" parent="1" vertex="1">
          <mxGeometry x="205" y="572" width="151" height="64" as="geometry" />
        </mxCell>
      </root>
    </mxGraphModel>
  </diagram>
</mxfile>
